<?xml version="1.0" encoding="utf-8"?>
<!-- Generator: Adobe Illustrator 26.2.1, SVG Export Plug-In . SVG Version: 6.00 Build 0)  -->
<svg version="1.1" xmlns="http://www.w3.org/2000/svg" xmlns:xlink="http://www.w3.org/1999/xlink" x="0px" y="0px"
	 viewBox="0 0 1080 1080" style="enable-background:new 0 0 1080 1080;" xml:space="preserve">
<style type="text/css">
	.st0{fill:#A1DB46;}
	.st1{fill:#24233D;}
	.st2{opacity:0.9;fill:#FFFFFF;}
	.st3{fill:#FFFFFF;}
	.st4{fill:#E0E0E0;}
	.st5{opacity:0.8;fill:#E0E0E0;}
	.st6{opacity:0.7;fill:#FFFFFF;}
</style>
<g id="Monograph_00000065071852451352761590000000244227912322317698_">
	<g id="Letters">
		<path class="st0" d="M1017.3,954.8h-32.7v-26.3h95.4v26.3h-32.6v90.5h-30.1V954.8z"/>
		<path class="st0" d="M861.8,928.6h30.6V997c0,13.8,7.4,23.8,23.6,23.8c16.1,0,23.5-10,23.5-23.8v-68.5h30.6v69.3
			c0,29.1-16.6,49.5-54.1,49.5c-37.5,0-54.3-20.7-54.3-49.4V928.6z"/>
		<path class="st0" d="M821,1027.6h-48.5l-6,17.7h-32.7l43.9-116.8h37.8l44.1,116.8H827L821,1027.6z M780.4,1002.3h32.7l-16.5-47.4
			L780.4,1002.3z"/>
		<path class="st1" d="M646.8,974.8v70.6h-30.1V928.6h31l47.3,67.2v-67.2h30.3v116.8h-29.1L646.8,974.8z"/>
		<path class="st1" d="M539.1,926.6c35.7,0,62.3,24.9,62.3,60.4c0,35.5-26.6,60.4-62.3,60.4c-35.7,0-62.5-24.9-62.5-60.4
			C476.6,951.5,503.4,926.6,539.1,926.6z M539.1,953.2c-19.4,0-31.9,14.7-31.9,33.8c0,18.9,12.4,33.8,31.9,33.8
			c19.3,0,31.7-14.9,31.7-33.8C570.8,967.9,558.4,953.2,539.1,953.2z"/>
		<path class="st1" d="M363.5,928.6h66.2c23.1,0,34.1,15.1,34.1,29.8c0,14.5-8.9,24.3-20,26.8c12.4,1.9,22.2,13.8,22.2,28.5
			c0,17-11.4,31.7-34.3,31.7h-68.3V928.6z M422.9,973.7c6.1,0,10.3-4.4,10.3-10.2c0-5.8-4.2-10-10.3-10h-29.2v20.1H422.9z
			 M423.9,1020.3c7.2,0,11.6-4.4,11.6-10.7c0-6-4.2-11-11.6-11h-30.3v21.7H423.9z"/>
		<path class="st1" d="M293.3,1005.8h-15.4v39.6h-30.1V928.6h58.5c25.9,0,40.6,17.2,40.6,38.9c0,20.3-12.4,31.2-23.3,35l23.8,42.9
			h-34.5L293.3,1005.8z M301.7,953.9h-23.8v26.3h23.8c7.9,0,14.5-5.1,14.5-13.1S309.6,953.9,301.7,953.9z"/>
		<path class="st1" d="M200.5,1027.6H152l-6,17.7h-32.7l43.9-116.8h37.8l44.1,116.8h-32.7L200.5,1027.6z M159.9,1002.3h32.7
			l-16.5-47.4L159.9,1002.3z"/>
		<path class="st1" d="M0,987c0-36.1,27.3-60.4,62.3-60.4c29.1,0,44.1,15.9,51.8,31.3l-25.9,12.3c-3.9-9.3-13.8-17-25.9-17
			c-18.2,0-31.7,14.7-31.7,33.8c0,19.1,13.5,33.8,31.7,33.8c12.1,0,22.1-7.7,25.9-17l25.9,12.3c-7.5,15.1-22.8,31.3-51.8,31.3
			C27.3,1047.4,0,1022.9,0,987z"/>
	</g>
</g>
<g id="Icon">
	<g id="BG_00000113351515916215476380000000498825359530500005_">
		<path id="BG" class="st1" d="M989.7,380L818,82.6c-17.8-30.9-51-50-86.6-50H387.9c-35.6,0-68.8,19.2-86.6,50L129.6,380
			c-17.8,30.9-17.8,69.2,0,100.1l171.7,297.4c17.8,30.9,51,50,86.6,50h343.4c35.6,0,68.8-19.2,86.6-50L989.7,480
			C1007.5,449.2,1007.5,410.8,989.7,380z"/>
		<path id="Frame" class="st2" d="M731.3,798.9H387.9c-25.6,0-49.5-13.8-62.3-36L153.9,465.5c-12.8-22.2-12.8-49.7,0-71.9
			L325.6,96.2c12.8-22.2,36.7-36,62.3-36h343.4c25.6,0,49.5,13.8,62.3,36l171.7,297.4c12.8,22.2,12.8,49.7,0,71.9L793.6,762.9
			C780.8,785.1,756.9,798.9,731.3,798.9z M387.9,79c-18.9,0-36.6,10.2-46,26.6L170.2,403c-9.5,16.4-9.5,36.8,0,53.2l171.7,297.4
			c9.5,16.4,27.1,26.6,46,26.6h343.4c18.9,0,36.6-10.2,46-26.6L949,456.1c9.5-16.4,9.5-36.8,0-53.2L777.3,105.6
			c-9.5-16.4-27.1-26.6-46-26.6H387.9z"/>
	</g>
	<g id="Charactter">
		<g id="Body">
			<path id="Body_Main" class="st3" d="M669.1,432c-0.7-1.3-1.6-2.8-2.6-4.3c-0.1-0.2-0.2-0.3-0.3-0.4l0,0
				c-8.9-13.5-20.8-24.8-34.7-33.1c-15.4-8.7-32.1-14.9-49.5-18.3c-11.4-1.7-23-1.5-34.2,0.8c-17.5,3-29.9,10.6-37.7,23.2l-10,17.4
				c-6.6,10.5-14.7,24.9-17.8,30.8c-3.1,4.8-6.5,9.4-10.1,13.9c0,0-50.3,27.2-57.8,31.7c0,0,0,0-0.1,0.1
				c-14.3,7.9-32.1,16.4-43,30.6c-10.2,12.9-16.9,28.2-19.7,44.4c-0.5,4.3-1.4,7.5-2.3,15.5c-1.1,10.4-1.8,23.6-1.7,27
				c0.2,13.3,8.6,25.1,21,29.8c5.4,1.8,11.2,2.1,16.7,0.7c22.4-3.9,16.3-32.6,34.7-54.9c12.8-15.6,18.5-17.8,28.3-23.7
				c10.1-6.1,27.3-12.3,37.4-1.3c7.2,7.9,5.3,18-3.6,25.8l0,0C460,607.1,441,637,437.6,661.7c-3,21.5,6.5,34.1,22.9,42.3l0,0
				c20.3,8.4,36.9-8.4,44.1-19.4c9.6-15.3,20.1-30,31.3-44.2c8.1-10.7,18.7-24.3,26.4-35.3c4.3-6.2,10.2-15.7,12.3-19.6
				c6.1-11.4,7.1-12.5,9.6-17.4c3-5.8,4-7.8,11-19.3c16.7-27.5,16.2-26.6,25.9-41c1.7-2.6,3.5-5.2,6.6-5.8c0.6-0.1,1.2-0.1,1.9,0
				c2.5,0.6,4.6,2.4,5.4,4.9c0.5,1.6,0.5,3.4-0.2,5l-6.2,11.2c-10.9,17.5-6.3,10.4-15.5,24.7c-6.9,10.6-15,21.7-16.5,30.6
				c-2.7,11.4,3.2,23.1,14,27.8c15.8,7.9,30.1,0.4,40.9-8.3c18.1-14.6,30.6-39.1,36.4-56.3c4.4-13.2,9.6-45.4-3.8-80.7
				C682.4,456.9,672.7,437.3,669.1,432z"/>
			<path id="Arm_Left_Main" class="st3" d="M421.9,448.4c26.8,5.6,45,3.6,55.2-14.6c5.9-10.5,15.6-31.6,28.7-48.5
				c7.2-9.2-22.2-12.8-38.6-8c-22.2,5.8-45.8,3.4-66.3-6.8c-14.5-7-30-7.5-40.4,7c-10.6,14.9-5.4,30,4.9,43
				c10.6,13.4,27.2,21.2,43.4,24.8"/>
			<path id="Leg_Left_Shadow" class="st4" d="M457.6,558.5c0.3-0.1,0.6-0.2,0.8-0.3c1.6-0.6,3.2-1.1,4.8-1.5c0.2,0,0.4-0.1,0.6-0.1
				c1.6-0.4,3.2-0.6,4.8-0.8c1.4-0.1,2.7-0.2,4-0.1l0,0c-9.4-0.9-17.8-0.8-25.9-0.1c-7.3,0.6-16.8,3.8-19.7,5.1
				c-14.8,6.7-27.8,22.4-31.3,33.3c-1.4,4.2-3,12.5-2.5,16.9c0.7,6.5-1.6,11.2-4.2,14.3c-2.5,3-4.9,4.2-7.9,5.6
				c-6.7,3.2-12,2.8-18.4,1.3c-5.6-1.3-8.4-4.3-13.2-10.3c3.2,8.7,10,15.8,18.9,19.2c5.4,1.8,11.2,2.1,16.7,0.7c0,0,0,0,0,0
				c8.4-1.5,12.8-6.4,16-13.2c1.6-3.4,2.9-7.3,4.2-11.4c0.9-2.7,1.8-5.6,2.8-8.5c2.6-7.3,5.9-14.9,11.7-21.8
				c8-9.7,13.2-14.2,18.4-17.7c0.6-0.4,1.2-0.7,1.8-1.1c2.5-1.6,5.1-3.1,8.1-4.9c1.3-0.8,2.6-1.5,4.1-2.2c0.2-0.1,0.4-0.2,0.7-0.3
				C454.5,559.7,456,559.1,457.6,558.5z"/>
			<path id="Leg_Right_Shadow" class="st4" d="M572.1,589.7c0.4-0.7,0.7-1.1,0.8-1.3c0-0.1,0.1-0.2,0.1-0.3
				c-0.4,0.5-0.9,0.9-1.4,1.3c-8.2,6.5-23.6,13.4-37.5,24.5c-11.8,9.4-21.1,21.1-25.4,31c-9.1,21-14.5,40.5-34,46.9
				c-17,5.5-33-4.2-36.4-12.6c2.9,11.3,10.8,19.2,22.1,24.9c11.2,4.6,21.2,1.6,29.2-3.9c6.6-4.7,11.8-10.8,14.9-15.5
				c9.6-15.3,20.1-30,31.3-44.2c4-5.3,8.7-11.4,13.3-17.5c4.6-6.1,9.2-12.3,13-17.8C565.5,600.4,570.1,592.9,572.1,589.7z"/>
			<path id="Arm_Right_Shadow" class="st4" d="M689.4,535.7C689.4,535.7,689.4,535.7,689.4,535.7c-0.9,4-17.9,31.8-35.4,46.4
				c-7.6,6.4-14.9,10.9-22.8,14.2c-0.8,0.3-1.7,0.7-2.5,1c-8.8,2.7-15.8,1.5-21-0.8c-6.3-2.8-10-7.2-11.2-8.7
				c-0.2-0.3-0.4-0.5-0.4-0.5c0,0.3,0.1,0.6,0.1,0.8c1.4,7.8,6.6,14.6,14.2,17.9c6.4,3.2,12.5,3.8,18.3,2.9c0,0,0,0,0,0
				c1.8-0.3,3.5-0.7,5.2-1.2c0,0,0,0,0,0c6.7-2.5,12.8-6.3,17.4-10c13.6-10.9,24-27.5,30.8-42.3c2.3-4.9,4.1-9.7,5.6-14
				C688.2,540,688.8,538,689.4,535.7z"/>
			<path id="Body_Shadow" class="st5" d="M692.2,499.7c-0.1-1-0.2-2-0.3-3.1c-0.2-2.8-0.6-5.6-1-8.5c-0.2-1.5-0.6-3.1-0.9-4.7
				c-0.4-2.3-0.9-4.6-1.5-7c-0.3-1.3-0.6-2.7-1-4c-1-3.8-2.2-7.6-3.7-11.5c0,0,0,0,0,0c0,0,0,0,0,0c-0.2-0.5-0.5-1.1-0.8-1.9
				c-0.1-0.3-0.3-0.6-0.4-0.9c-0.3-0.6-0.6-1.2-0.9-1.9c-0.2-0.5-0.4-0.9-0.7-1.4c-0.3-0.6-0.6-1.2-0.9-1.9c-1-2.1-2.2-4.4-3.3-6.7
				c0,0,0,0,0,0c-0.3-0.5-0.5-1-0.8-1.6c0-0.1-0.1-0.2-0.1-0.2c-0.1-0.2-0.2-0.3-0.3-0.5c-0.1-0.2-0.2-0.4-0.3-0.6
				c-0.4-0.8-0.8-1.5-1.2-2.3c0,0,0-0.1-0.1-0.1c-0.1-0.2-0.2-0.4-0.4-0.7c-0.1-0.1-0.1-0.2-0.2-0.4c-1.8-3.4-3.4-6.3-4.5-7.9
				c-0.7-1.3-1.6-2.8-2.6-4.3c-0.1-0.2-0.2-0.3-0.3-0.4c-8.9-13.5-20.8-24.8-34.7-33.1c-15.4-8.7-32.1-14.9-49.5-18.3
				c-11.4-1.7-23-1.5-34.2,0.8c-17.5,3-29.9,10.6-37.8,23.2l-10,17.4c-0.6,1-1.3,2.1-2,3.2c1.4-1.3,2.9-2.5,4.5-3.7
				c2.6-1.9,5.4-3.6,8.5-5.2c19.5-10.1,42.4-20.3,72.6-12.3c35.9,9.4,43.9,20.9,48,42.1c8.3,42-33.9,46.6-52.9,93.3
				c-5.3,17-1.9,34.2,2.4,38.8c1-1.8,1.9-3.2,2.9-5.3c3-5.8,4-7.8,11-19.3c16.7-27.5,16.2-26.6,25.9-41c1.7-2.6,3.5-5.2,6.6-5.8
				c0.6-0.1,1.2-0.1,1.9,0c0.2,0.1,0.4,0.2,0.7,0.2l0,0c2.2,0.7,4,2.4,4.7,4.7c0.5,1.6,0.5,3.4-0.2,5l-5.2,9.4c0,0.1,0,0.2-0.1,0.4
				c0.5-0.6,3.6-5.2,5-6.6c1.6-1.7,3.6-3.4,4.2-4c16.4-16.2,40.7-18.2,53.6-4.9c0.1,0.1,0.2,0.2,0.2,0.2
				C692.4,504.3,692.3,502,692.2,499.7z"/>
			<path id="Arm_Left_Shadow" class="st4" d="M506.9,382.6c-5.7,1.1-10.5,2.5-16.8,5.1c-10.9,4.5-17.4,15.2-18.1,24.9
				c-0.8,11.3-7.6,21.8-20.3,25.7c-22.2,6.7-50.6,5.1-58.7,2.1c5.2,2.1,10.6,3.8,15.9,5l13.1,3c26.8,5.6,45,3.6,55.2-14.6
				c5.9-10.5,15.6-31.6,28.7-48.5C506.6,384.4,506.9,383.5,506.9,382.6z"/>
		</g>
		<g id="Bag">
			<path id="Bag_Main" class="st3" d="M696.6,456c13.3,27.3,10.3,69.8,4.4,91.5c-1,3.7,8.6,5.8,11.9,6.7c6.7,1.7,13.8-5.2,17-8.2
				c12.3-11.9,19.6-17.7,22-26.7c1.7-6.1-0.1-15.5-1.6-22.5c-4.1-19.1-3.5-38.4-2.3-52c0.8-9.4-8.6-19.7-16.5-11.3
				C726.1,439.1,696.3,456.7,696.6,456z"/>
			<path id="Tube_Main" class="st3" d="M777.9,364.9c0,0-2.9,6.4-5.2,12.1c-1.5,3.5-3.3,6.6-2.5,7.8c1.1,1.6,7.2,0.2,9.4-0.7
				c5.2-2,13.1-8,20.4-2.9c7.3,5.1,8.2,16.4,6.6,27.4c-1.9,13.1-11.6,24.2-25.6,31.8c-5.5,3-12.4,5.7-20.5,9.5
				c-1.3,0.6-2.2,1.9-2.3,3.3l-0.7,11.2c0,0-0.1,5.2-0.1,5.5c-0.5,7.1,4.4,4.9,9.2,3.3c24.4-10.5,54.5-29.1,59.3-57.4
				c1.5-8.8,3.1-28-3.1-40.2c-6.8-13.2-20.4-23.3-37.8-16.3C781.5,360.9,779,362.1,777.9,364.9z"/>
			<path id="Bag_Shadow" class="st4" d="M750.3,496.8c-4.1-19.1-3.5-38.4-2.3-52c0.4-4.3-1.4-8.8-4.2-11.6
				c-9.1,13.9-12,26.2-11.2,41.5c0.2,3.3,2.2,14,3.2,17.2c7.7,24.1-2.7,38-16,42.1c-6.6,1.9-11.9-0.8-14.6-4.4
				c-0.2-0.3-0.4-0.6-0.6-0.9c-0.9,7.2-2.1,13.6-3.6,18.9c-1,3.7,8.6,5.8,11.9,6.7c6.7,1.7,13.8-5.2,17-8.2
				c12.3-11.9,19.6-17.7,22-26.7C753.5,513.2,751.8,503.8,750.3,496.8z"/>
			<path id="Tube_Shadow" class="st4" d="M827.3,401.6c0-0.1,0-0.2,0-0.3c-3.2,12.6-11.1,29.2-19,37.5c-10.6,11-22.5,18.2-32.4,22.4
				c-16.2,6.9-17.4,2.1-18-1.5c0-0.2-0.1-0.5-0.1-0.7l-0.4,5.5c0,0-0.1,5.2-0.1,5.5c-0.3,3.6,0.8,4.8,2.6,4.9c0.4,0,0.9,0,1.4-0.1
				c0.5-0.1,1.1-0.2,1.6-0.4c1.1-0.3,2.3-0.8,3.5-1.2c19.8-8.5,43.4-22.4,54.1-42.5c2.5-4.6,4.3-9.6,5.2-14.9
				C826.4,413.7,827,405.2,827.3,401.6z"/>
		</g>
		<g id="Helmet">
			<path id="Main_00000012442019145700524070000002507131770703665284_" class="st3" d="M708.1,212.9c-45.7-27.9-103.6-25.7-147,5.6
				c22.9-5.8,43.8-8.4,58.2-7.2c22.2,2,43.6,9,62.7,20.6c92.4,54.7,2.6,146.2,2.6,146.2C622,316.3,548.5,331,531,333.2
				c-9.3-9.6-15.9-24.8-18.9-41c-1.4,4.5-2.4,9.1-2.9,13.8c-2.7,22.5,0.7,45.4,9.8,66.2c39.3-16.2,83.9-12.7,120.2,9.4
				c22.8,13.8,40.7,34.3,51.4,58.7c24.8-10.1,45.8-27.7,60.2-50.3c37.4-59.6,19.4-138.3-40.2-175.7c0,0,0,0,0,0
				C709.7,213.8,708.9,213.3,708.1,212.9"/>
			<path id="Shadow_00000127026878996009392460000009372719859579618947_" class="st4" d="M741.7,402.3c0.2-0.2,0.4-0.5,0.6-0.7
				c32.5-40.5,38.1-98.4,9.7-145.4c-10.8-17.8-25.8-32.8-43.8-43.4c3.8,4.6,16.3,13.7,24.2,28.7c12.9,24.4,24.6,60.6,20.1,99.8
				c-4.9,22.6-19.5,59.9-73.6,78.1c4.5,6.6,8.4,13.6,11.7,20.9c6.5-2.7,12.7-5.9,18.6-9.5c0,0,0,0-0.1,0.1l0,0
				c0.3-0.2,0.5-0.4,0.8-0.6c2.7-1.7,5.3-3.5,7.9-5.3c1.2-0.9,2.5-1.8,3.7-2.7c1.4-1.1,2.7-2.3,4.1-3.4c3.6-3.1,7-6.3,10.2-9.6
				c0.1-0.1,0.2-0.2,0.3-0.3C737.9,406.8,739.8,404.6,741.7,402.3z"/>
		</g>
		<g id="Mustache">
			<path id="Main_00000115509435564437329920000011382960261077924998_" class="st3" d="M647.3,311.4c-10.3-3.5-12.9-20.6-28.5-24.4
				c-15.6-3.4-17.3,7.4-17.3,7.3c0,0.1,1.7-10.7-13.9-12.5c-15.6-1.5-23.3,14.6-33.6,14.9c-5.1,0.2-9.4-4.8-9.4-4.8
				c0,0.2,0.9,26.1,21.5,26.1c25.9,0.8,33.8-12.9,33.7-13.2c0,0.3,2.7,15.6,28.7,22.2c20.8,5.8,30-16.5,30-16.6
				C658.4,310.3,652.5,313.2,647.3,311.4z"/>
			<path id="Shadow_00000093143292363768899220000015787645490454427012_" class="st4" d="M621.7,318.6c-2.9-0.8-5.6-2-8.2-3.4
				c-5.4-3.1-10-8.9-11.1-13.7c-0.5-2-3.9-2.2-4.9-0.2c-2.4,4.8-8.7,8.8-14.1,10.3c-0.4,0.1-0.8,0.2-1.2,0.3c-0.3,0.1-0.7,0.1-1,0.2
				c-2.5,0.4-5.1,0.6-7.9,0.6c-8,0-14.2-1.1-19.4-4.9c-5.3-3.9-9-15.5-9.4-15.9l0,0c0,0,0,0,0,0c0,0.2,0.9,26.1,21.5,26.1
				c2.7,0.1,5.1,0,7.5-0.2c0.3,0,0.6,0,0.9-0.1c2.1-0.2,4.1-0.5,5.9-1c0.3-0.1,0.7-0.2,1-0.2c1.7-0.4,3.3-0.9,4.7-1.5
				c0.3-0.1,0.6-0.2,0.9-0.4c1.4-0.6,2.7-1.1,3.8-1.8c0.2-0.1,0.4-0.2,0.6-0.4c1-0.6,2-1.2,2.8-1.8c0.1-0.1,0.2-0.1,0.3-0.2
				c0.9-0.7,1.6-1.3,2.2-1.9c0.1-0.1,0.2-0.2,0.4-0.3c0.6-0.6,1.1-1.1,1.4-1.6c0.1-0.1,0.1-0.2,0.2-0.2c0.4-0.5,0.7-0.9,0.8-1.2
				l0.1-0.4l0.3,0.4c0.6,2.6,5,15.7,28.6,21.7c20.8,5.8,30-16.5,30-16.6C645.7,322.4,633.1,321.8,621.7,318.6z"/>
		</g>
		<g id="Leaf">
			<path id="Main" class="st3" d="M449.1,261.4c-0.1-0.3-0.2-0.5-0.3-0.7l0,0.1c-8.3-20.4-22.9-12.2-25.3-6.5
				c-2.5,5.3-6.4,12.3-11.2,15.8c-1.5,1.1-3.1,2.1-4.5,3c-1.5,0.9-6.4,3.9-6.6,4c-12.7,8.1-14.5,24.7-7.4,38.3
				c0.1,0.1,0.1,0.2,0.1,0.3c0.1,0.1,0.1,0.2,0.2,0.3c0.1-0.1,0.1-0.2,0.2-0.3c4.5-8.6,11.7-16.7,23.8-24.3c0-0.1,0.1-0.1,0.1-0.1
				s8.9-4.7,13.8-16.7c0,0,0.2-0.6,0.3-0.7c0.9-2.3,4.5-1.7,3.7,2c-0.2,0.7-0.5,1.5-0.8,2.1c-0.9,2.2-2,5-4.1,8.3
				c-2.8,4.1-7.5,8.8-13.5,12.8l-0.1,0.1c-22,16.4-24.6,36-23.9,44c0.2,2.7,1.3,5.5,3.9,5.2c2.7-0.2,3.7-2.4,3.5-5
				c0.1-6.6-0.1-10.8,3.7-16c9.3,4.6,19.2,3.7,27.8-2.1c13.4-8.2,20-22.8,20.9-38.1C454,279.1,453.2,269.2,449.1,261.4z"/>
			<path id="Shadow" class="st4" d="M449.1,261.4c-0.1-0.3-0.8-1.8-0.9-2.1c2.9,10.3,2.2,24-1.4,35.7c-7.3,23.2-23.7,26.9-27.7,26.7
				c-0.4,0-0.7-0.1-1-0.1c-10.1-1.8-13.3,5.5-13.3,5.5c9.3,4.6,19.2,3.7,27.8-2.1c13.4-8.2,20-22.8,20.9-38.1
				C454,279.1,453.2,269.2,449.1,261.4z"/>
		</g>
	</g>
	<g id="Decor">
		<circle class="st6" cx="270.2" cy="468.8" r="17.2"/>
		<circle class="st6" cx="729" cy="678.5" r="17.2"/>
		<circle class="st6" cx="729" cy="149.7" r="17.2"/>
		<circle class="st6" cx="367.9" cy="186.3" r="10.9"/>
		<circle class="st6" cx="458.6" cy="134" r="10.9"/>
		<circle class="st6" cx="636.2" cy="712.5" r="10.9"/>
		<circle class="st6" cx="786.2" cy="608" r="10.9"/>
	</g>
</g>
</svg>
